<svg width="143" height="34" viewBox="0 0 143 34" fill="none" xmlns="http://www.w3.org/2000/svg">
<path d="M-7.33696e-06 26.712L11.34 1.512H15.948L27.324 26.712H22.428L12.672 3.996H14.544L4.82399 26.712H-7.33696e-06ZM5.21999 20.88L6.47999 17.208H20.088L21.348 20.88H5.21999ZM41.1128 26.964C39.5528 26.964 38.1248 26.604 36.8288 25.884C35.5568 25.164 34.5368 24.084 33.7688 22.644C33.0248 21.18 32.6528 19.332 32.6528 17.1C32.6528 14.844 33.0128 12.996 33.7328 11.556C34.4768 10.116 35.4848 9.048 36.7568 8.352C38.0288 7.632 39.4808 7.272 41.1128 7.272C43.0088 7.272 44.6768 7.68 46.1168 8.496C47.5808 9.312 48.7328 10.452 49.5728 11.916C50.4368 13.38 50.8688 15.108 50.8688 17.1C50.8688 19.092 50.4368 20.832 49.5728 22.32C48.7328 23.784 47.5808 24.924 46.1168 25.74C44.6768 26.556 43.0088 26.964 41.1128 26.964ZM30.4568 33.696V7.488H34.7408V12.024L34.5968 17.136L34.9568 22.248V33.696H30.4568ZM40.6088 23.112C41.6888 23.112 42.6488 22.872 43.4888 22.392C44.3528 21.912 45.0368 21.216 45.5408 20.304C46.0448 19.392 46.2968 18.324 46.2968 17.1C46.2968 15.852 46.0448 14.784 45.5408 13.896C45.0368 12.984 44.3528 12.288 43.4888 11.808C42.6488 11.328 41.6888 11.088 40.6088 11.088C39.5288 11.088 38.5568 11.328 37.6928 11.808C36.8288 12.288 36.1448 12.984 35.6408 13.896C35.1368 14.784 34.8848 15.852 34.8848 17.1C34.8848 18.324 35.1368 19.392 35.6408 20.304C36.1448 21.216 36.8288 21.912 37.6928 22.392C38.5568 22.872 39.5288 23.112 40.6088 23.112ZM66.1525 26.964C64.5925 26.964 63.1645 26.604 61.8685 25.884C60.5965 25.164 59.5765 24.084 58.8085 22.644C58.0645 21.18 57.6925 19.332 57.6925 17.1C57.6925 14.844 58.0525 12.996 58.7725 11.556C59.5165 10.116 60.5245 9.048 61.7965 8.352C63.0685 7.632 64.5205 7.272 66.1525 7.272C68.0485 7.272 69.7165 7.68 71.1565 8.496C72.6205 9.312 73.7725 10.452 74.6125 11.916C75.4765 13.38 75.9085 15.108 75.9085 17.1C75.9085 19.092 75.4765 20.832 74.6125 22.32C73.7725 23.784 72.6205 24.924 71.1565 25.74C69.7165 26.556 68.0485 26.964 66.1525 26.964ZM55.4965 33.696V7.488H59.7805V12.024L59.6365 17.136L59.9965 22.248V33.696H55.4965ZM65.6485 23.112C66.7285 23.112 67.6885 22.872 68.5285 22.392C69.3925 21.912 70.0765 21.216 70.5805 20.304C71.0845 19.392 71.3365 18.324 71.3365 17.1C71.3365 15.852 71.0845 14.784 70.5805 13.896C70.0765 12.984 69.3925 12.288 68.5285 11.808C67.6885 11.328 66.7285 11.088 65.6485 11.088C64.5685 11.088 63.5965 11.328 62.7325 11.808C61.8685 12.288 61.1845 12.984 60.6805 13.896C60.1765 14.784 59.9245 15.852 59.9245 17.1C59.9245 18.324 60.1765 19.392 60.6805 20.304C61.1845 21.216 61.8685 21.912 62.7325 22.392C63.5965 22.872 64.5685 23.112 65.6485 23.112ZM80.5362 26.712V4.05312e-06H85.0362V26.712H80.5362ZM92.8865 33.948C91.9505 33.948 91.0145 33.792 90.0785 33.48C89.1425 33.168 88.3625 32.736 87.7385 32.184L89.5385 28.872C89.9945 29.28 90.5105 29.604 91.0865 29.844C91.6625 30.084 92.2505 30.204 92.8505 30.204C93.6665 30.204 94.3265 30 94.8305 29.592C95.3345 29.184 95.8025 28.5 96.2345 27.54L97.3505 25.02L97.7105 24.48L104.982 7.488H109.302L100.302 28.26C99.7025 29.7 99.0305 30.84 98.2865 31.68C97.5665 32.52 96.7505 33.108 95.8385 33.444C94.9505 33.78 93.9665 33.948 92.8865 33.948ZM96.8465 27.396L88.1705 7.488H92.8505L99.9065 24.084L96.8465 27.396ZM112.475 26.712V7.488H116.759V12.78L116.255 11.232C116.831 9.936 117.731 8.952 118.955 8.28C120.203 7.608 121.751 7.272 123.599 7.272V11.556C123.407 11.508 123.227 11.484 123.059 11.484C122.891 11.46 122.723 11.448 122.555 11.448C120.851 11.448 119.495 11.952 118.487 12.96C117.479 13.944 116.975 15.42 116.975 17.388V26.712H112.475ZM138.249 26.712V22.824L137.997 21.996V15.192C137.997 13.872 137.601 12.852 136.809 12.132C136.017 11.388 134.817 11.016 133.209 11.016C132.129 11.016 131.061 11.184 130.005 11.52C128.973 11.856 128.097 12.324 127.377 12.924L125.613 9.648C126.645 8.856 127.869 8.268 129.285 7.88401C130.725 7.47601 132.213 7.272 133.749 7.272C136.533 7.272 138.681 7.944 140.193 9.288C141.729 10.608 142.497 12.66 142.497 15.444V26.712H138.249ZM132.201 26.964C130.761 26.964 129.501 26.724 128.421 26.244C127.341 25.74 126.501 25.056 125.901 24.192C125.325 23.304 125.037 22.308 125.037 21.204C125.037 20.124 125.289 19.152 125.793 18.288C126.321 17.424 127.173 16.74 128.349 16.236C129.525 15.732 131.085 15.48 133.029 15.48H138.609V18.468H133.353C131.817 18.468 130.785 18.72 130.257 19.224C129.729 19.704 129.465 20.304 129.465 21.024C129.465 21.84 129.789 22.488 130.437 22.968C131.085 23.448 131.985 23.688 133.137 23.688C134.241 23.688 135.225 23.436 136.089 22.932C136.977 22.428 137.613 21.684 137.997 20.7L138.753 23.4C138.321 24.528 137.541 25.404 136.413 26.028C135.309 26.652 133.905 26.964 132.201 26.964Z" fill="url(#paint0_linear_3_6)"/>
<defs>
<linearGradient id="paint0_linear_3_6" x1="0.179993" y1="13.712" x2="146.18" y2="13.712" gradientUnits="userSpaceOnUse">
<stop offset="0.5" stop-color="#2662D9"/>
<stop offset="1" stop-color="#2D1473"/>
</linearGradient>
</defs>
</svg>
